{
  "accessors": [
    {
      "bufferView": 2,
      "componentType": 5126,
      "count": 1398,
      "max": [
        33.45560073852539,
        2.1229023933410645,
        57.891082763671875
      ],
      "min": [
        -75.75331115722656,
        -24.23760986328125,
        -67.96562957763672
      ],
      "type": "VEC3"
    },
    {
      "bufferView": 2,
      "byteOffset": 16776,
      "componentType": 5126,
      "count": 1398,
      "max": [
        1.0,
        1.0,
        1.0
      ],
      "min": [
        -1.0,
        -1.0,
        -1.0
      ],
      "type": "VEC3"
    },
    {
      "bufferView": 1,
      "componentType": 5126,
      "count": 1398,
      "max": [
        1.0,
        1.0
      ],
      "min": [
        -2.9078613295041578e-08,
        0.0
      ],
      "type": "VEC2"
    },
    {
      "bufferView": 0,
      "componentType": 5125,
      "count": 5304,
      "type": "SCALAR"
    },
    {
      "bufferView": 2,
      "byteOffset": 33552,
      "componentType": 5126,
      "count": 36,
      "max": [
        27.85874366760254,
        2.1229023933410645,
        52.02528762817383
      ],
      "min": [
        -69.88751983642578,
        2.1229023933410645,
        -62.099830627441406
      ],
      "type": "VEC3"
    },
    {
      "bufferView": 2,
      "byteOffset": 33984,
      "componentType": 5126,
      "count": 36,
      "max": [
        0.1016002967953682,
        0.9948935508728027,
        0.10160014778375626
      ],
      "min": [
        -0.10160012543201447,
        0.9946199655532837,
        -0.10159996151924133
      ],
      "type": "VEC3"
    },
    {
      "bufferView": 1,
      "byteOffset": 11184,
      "componentType": 5126,
      "count": 36,
      "max": [
        0.8842087984085083,
        0.9765942692756653
      ],
      "min": [
        0.06656500697135925,
        0.02194208838045597
      ],
      "type": "VEC2"
    },
    {
      "bufferView": 0,
      "byteOffset": 21216,
      "componentType": 5125,
      "count": 102,
      "type": "SCALAR"
    },
    {
      "bufferView": 2,
      "byteOffset": 34416,
      "componentType": 5126,
      "count": 180,
      "max": [
        24.313146591186523,
        -24.175949096679688,
        40.29026794433594
      ],
      "min": [
        -66.34193420410156,
        -26.78978729248047,
        -50.364810943603516
      ],
      "type": "VEC3"
    },
    {
      "bufferView": 2,
      "byteOffset": 36576,
      "componentType": 5126,
      "count": 180,
      "max": [
        0.9790114164352417,
        -0.19580283761024475,
        0.9790123701095581
      ],
      "min": [
        -0.9790114164352417,
        -0.9946792721748352,
        -0.9790116548538208
      ],
      "type": "VEC3"
    },
    {
      "bufferView": 1,
      "byteOffset": 11472,
      "componentType": 5126,
      "count": 180,
      "max": [
        0.8241296410560608,
        0.8126335144042969
      ],
      "min": [
        0.19537994265556335,
        0.2519378364086151
      ],
      "type": "VEC2"
    },
    {
      "bufferView": 0,
      "byteOffset": 21624,
      "componentType": 5125,
      "count": 966,
      "type": "SCALAR"
    },
    {
      "bufferView": 2,
      "byteOffset": 38736,
      "componentType": 5126,
      "count": 64,
      "max": [
        32.259220123291016,
        -11.149394035339355,
        40.82402420043945
      ],
      "min": [
        -71.9295883178711,
        -13.729000091552734,
        -52.996910095214844
      ],
      "type": "VEC3"
    },
    {
      "bufferView": 2,
      "byteOffset": 39504,
      "componentType": 5126,
      "count": 64,
      "max": [
        1.0,
        0.0,
        1.3078428082735627e-06
      ],
      "min": [
        -1.0,
        0.0,
        -8.500976491632173e-07
      ],
      "type": "VEC3"
    },
    {
      "bufferView": 1,
      "byteOffset": 12912,
      "componentType": 5126,
      "count": 64,
      "max": [
        0.9900000095367432,
        0.49000000953674316
      ],
      "min": [
        0.01000000536441803,
        0.01000000536441803
      ],
      "type": "VEC2"
    },
    {
      "bufferView": 0,
      "byteOffset": 25488,
      "componentType": 5125,
      "count": 168,
      "type": "SCALAR"
    },
    {
      "bufferView": 2,
      "byteOffset": 40272,
      "componentType": 5126,
      "count": 376,
      "max": [
        4.311944007873535,
        7.984661102294922,
        33.84986877441406
      ],
      "min": [
        -4.315133571624756,
        -7.984533309936523,
        -33.84736251831055
      ],
      "type": "VEC3"
    },
    {
      "bufferView": 2,
      "byteOffset": 44784,
      "componentType": 5126,
      "count": 376,
      "max": [
        1.0,
        1.0,
        1.0
      ],
      "min": [
        -1.0,
        -1.0,
        -1.0
      ],
      "type": "VEC3"
    },
    {
      "bufferView": 1,
      "byteOffset": 13424,
      "componentType": 5126,
      "count": 376,
      "max": [
        1.0,
        1.0
      ],
      "min": [
        0.0,
        0.0
      ],
      "type": "VEC2"
    },
    {
      "bufferView": 0,
      "byteOffset": 26160,
      "componentType": 5125,
      "count": 1212,
      "type": "SCALAR"
    },
    {
      "bufferView": 2,
      "byteOffset": 49296,
      "componentType": 5126,
      "count": 16,
      "max": [
        -2.3584678173065186,
        0.7530714273452759,
        -3.6906349658966064
      ],
      "min": [
        -2.3584678173065186,
        -1.8265266418457031,
        -6.270232677459717
      ],
      "type": "VEC3"
    },
    {
      "bufferView": 2,
      "byteOffset": 49488,
      "componentType": 5126,
      "count": 16,
      "max": [
        1.0,
        0.0,
        2.8572381793878776e-08
      ],
      "min": [
        1.0,
        0.0,
        2.8572381793878776e-08
      ],
      "type": "VEC3"
    },
    {
      "bufferView": 1,
      "byteOffset": 16432,
      "componentType": 5126,
      "count": 16,
      "max": [
        0.9900000095367432,
        0.49000000953674316
      ],
      "min": [
        0.5099999904632568,
        0.01000000536441803
      ],
      "type": "VEC2"
    },
    {
      "bufferView": 0,
      "byteOffset": 31008,
      "componentType": 5125,
      "count": 42,
      "type": "SCALAR"
    },
    {
      "bufferView": 2,
      "byteOffset": 49680,
      "componentType": 5126,
      "count": 2400,
      "max": [
        9.128171920776367,
        2.2746057510375977,
        9.128172874450684
      ],
      "min": [
        -9.128172874450684,
        -5.337634563446045,
        -9.128172874450684
      ],
      "type": "VEC3"
    },
    {
      "bufferView": 2,
      "byteOffset": 78480,
      "componentType": 5126,
      "count": 2400,
      "max": [
        0.9999265074729919,
        1.0,
        0.9999265074729919
      ],
      "min": [
        -0.9999265074729919,
        -1.0,
        -0.9999265074729919
      ],
      "type": "VEC3"
    },
    {
      "bufferView": 1,
      "byteOffset": 16560,
      "componentType": 5126,
      "count": 2400,
      "max": [
        0.0,
        0.0
      ],
      "min": [
        0.0,
        0.0
      ],
      "type": "VEC2"
    },
    {
      "bufferView": 0,
      "byteOffset": 31176,
      "componentType": 5125,
      "count": 9972,
      "type": "SCALAR"
    },
    {
      "bufferView": 2,
      "byteOffset": 107280,
      "componentType": 5126,
      "count": 96,
      "max": [
        6.793326377868652,
        1.8649336099624634,
        6.793326377868652
      ],
      "min": [
        -6.793326377868652,
        1.8247371912002563,
        -6.793326377868652
      ],
      "type": "VEC3"
    },
    {
      "bufferView": 2,
      "byteOffset": 108432,
      "componentType": 5126,
      "count": 96,
      "max": [
        0.38110846281051636,
        1.0,
        0.3811083436012268
      ],
      "min": [
        -0.38110846281051636,
        0.9245299100875854,
        -0.3811083436012268
      ],
      "type": "VEC3"
    },
    {
      "bufferView": 1,
      "byteOffset": 35760,
      "componentType": 5126,
      "count": 96,
      "max": [
        0.0,
        0.0
      ],
      "min": [
        0.0,
        0.0
      ],
      "type": "VEC2"
    },
    {
      "bufferView": 0,
      "byteOffset": 71064,
      "componentType": 5125,
      "count": 384,
      "type": "SCALAR"
    },
    {
      "bufferView": 2,
      "byteOffset": 109584,
      "componentType": 5126,
      "count": 141,
      "max": [
        4.0973429679870605,
        6.016096591949463,
        14.492464065551758
      ],
      "min": [
        -4.097342491149902,
        0.33561453223228455,
        -14.492464065551758
      ],
      "type": "VEC3"
    },
    {
      "bufferView": 2,
      "byteOffset": 111276,
      "componentType": 5126,
      "count": 141,
      "max": [
        0.9954091906547546,
        1.0,
        0.9949496984481812
      ],
      "min": [
        -0.9954091906547546,
        -0.9946326017379761,
        -0.9949496984481812
      ],
      "type": "VEC3"
    },
    {
      "bufferView": 1,
      "byteOffset": 36528,
      "componentType": 5126,
      "count": 141,
      "max": [
        1.0,
        1.0
      ],
      "min": [
        0.0,
        0.0
      ],
      "type": "VEC2"
    },
    {
      "bufferView": 0,
      "byteOffset": 72600,
      "componentType": 5125,
      "count": 708,
      "type": "SCALAR"
    },
    {
      "bufferView": 2,
      "byteOffset": 112968,
      "componentType": 5126,
      "count": 4964,
      "max": [
        51.377803802490234,
        5.389464378356934,
        65.14024353027344
      ],
      "min": [
        -52.39336395263672,
        -154.31224060058594,
        -32.06241989135742
      ],
      "type": "VEC3"
    },
    {
      "bufferView": 2,
      "byteOffset": 172536,
      "componentType": 5126,
      "count": 4964,
      "max": [
        1.0,
        0.999970018863678,
        0.9999778866767883
      ],
      "min": [
        -1.0,
        -0.999970018863678,
        -0.9999992847442627
      ],
      "type": "VEC3"
    },
    {
      "bufferView": 1,
      "byteOffset": 37656,
      "componentType": 5126,
      "count": 4964,
      "max": [
        0.9739367365837097,
        1.0
      ],
      "min": [
        0.0,
        0.0
      ],
      "type": "VEC2"
    },
    {
      "bufferView": 0,
      "byteOffset": 75432,
      "componentType": 5125,
      "count": 26280,
      "type": "SCALAR"
    },
    {
      "bufferView": 2,
      "byteOffset": 232104,
      "componentType": 5126,
      "count": 2126,
      "max": [
        6.520181655883789,
        23.044960021972656,
        5.741935729980469
      ],
      "min": [
        -72.59938049316406,
        -22.230985641479492,
        -72.9669189453125
      ],
      "type": "VEC3"
    },
    {
      "bufferView": 2,
      "byteOffset": 257616,
      "componentType": 5126,
      "count": 2126,
      "max": [
        1.0,
        1.0,
        1.0
      ],
      "min": [
        -1.0,
        -1.0,
        -1.0
      ],
      "type": "VEC3"
    },
    {
      "bufferView": 1,
      "byteOffset": 77368,
      "componentType": 5126,
      "count": 2126,
      "max": [
        0.0,
        0.0
      ],
      "min": [
        0.0,
        0.0
      ],
      "type": "VEC2"
    },
    {
      "bufferView": 0,
      "byteOffset": 180552,
      "componentType": 5125,
      "count": 9720,
      "type": "SCALAR"
    },
    {
      "bufferView": 2,
      "byteOffset": 283128,
      "componentType": 5126,
      "count": 8794,
      "max": [
        32.43575668334961,
        -8.319393157958984,
        99.68887329101563
      ],
      "min": [
        -74.46453857421875,
        -179.63511657714844,
        -106.61837768554688
      ],
      "type": "VEC3"
    },
    {
      "bufferView": 2,
      "byteOffset": 388656,
      "componentType": 5126,
      "count": 8794,
      "max": [
        1.0,
        0.9996398687362671,
        0.9955257773399353
      ],
      "min": [
        -1.0,
        -0.9996411204338074,
        -0.9956122040748596
      ],
      "type": "VEC3"
    },
    {
      "bufferView": 1,
      "byteOffset": 94376,
      "componentType": 5126,
      "count": 8794,
      "max": [
        0.9882280230522156,
        0.08304409682750702
      ],
      "min": [
        0.0,
        0.0
      ],
      "type": "VEC2"
    },
    {
      "bufferView": 0,
      "byteOffset": 219432,
      "componentType": 5125,
      "count": 49944,
      "type": "SCALAR"
    }
  ],
  "asset": {
    "extras": {
      "author": "Jonathan Comonal (https://sketchfab.com/Natchioz.C)",
      "license": "CC-BY-NC-4.0 (http://creativecommons.org/licenses/by-nc/4.0/)",
      "source": "https://sketchfab.com/3d-models/smartwatch-e5ac6928e8aa47b89f4968cfee94b5a1",
      "title": "smartwatch"
    },
    "generator": "Sketchfab-15.16.0",
    "version": "2.0"
  },
  "bufferViews": [
    {
      "buffer": 0,
      "byteLength": 419208,
      "name": "floatBufferViews",
      "target": 34963
    },
    {
      "buffer": 0,
      "byteLength": 164728,
      "byteOffset": 419208,
      "byteStride": 8,
      "name": "floatBufferViews",
      "target": 34962
    },
    {
      "buffer": 0,
      "byteLength": 494184,
      "byteOffset": 583936,
      "byteStride": 12,
      "name": "floatBufferViews",
      "target": 34962
    }
  ],
  "buffers": [
    {
      "byteLength": 1078120,
      "uri": "scene.bin"
    }
  ],
  "images": [
    {
      "uri": "textures/screen_baseColor.jpeg"
    },
    {
      "uri": "textures/back_baseColor.jpeg"
    }
  ],
  "materials": [
    {
      "doubleSided": true,
      "name": "base_color",
      "pbrMetallicRoughness": {
        "baseColorFactor": [
          0.8,
          0.8,
          0.8,
          1.0
        ],
        "roughnessFactor": 0.14818788019163498
      }
    },
    {
      "doubleSided": true,
      "name": "screen",
      "pbrMetallicRoughness": {
        "baseColorTexture": {
          "index": 0
        },
        "metallicFactor": 0.35809632943643255,
        "roughnessFactor": 0.0
      }
    },
    {
      "doubleSided": true,
      "name": "back",
      "pbrMetallicRoughness": {
        "baseColorTexture": {
          "index": 1
        },
        "metallicFactor": 0.3154295327376236,
        "roughnessFactor": 0.1299021101778597
      }
    },
    {
      "doubleSided": true,
      "name": "METAL",
      "pbrMetallicRoughness": {
        "baseColorFactor": [
          0.0699776,
          0.0699776,
          0.0699776,
          1.0
        ],
        "roughnessFactor": 0.22742621691799447
      }
    },
    {
      "doubleSided": true,
      "name": "orange",
      "pbrMetallicRoughness": {
        "baseColorFactor": [
          1.0,
          0.2562149999999999,
          0.11631699999999998,
          1.0
        ],
        "roughnessFactor": 0.40418866038448886
      }
    },
    {
      "doubleSided": true,
      "name": "wristband",
      "pbrMetallicRoughness": {
        "baseColorFactor": [
          0.9301109999999998,
          0.07421329999999998,
          0.0,
          1.0
        ],
        "metallicFactor": 0.0,
        "roughnessFactor": 0.5
      }
    }
  ],
  "meshes": [
    {
      "name": "base.001_base color_0",
      "primitives": [
        {
          "attributes": {
            "NORMAL": 1,
            "POSITION": 0,
            "TEXCOORD_0": 2
          },
          "indices": 3,
          "material": 0,
          "mode": 4
        }
      ]
    },
    {
      "name": "base.001_screen_0",
      "primitives": [
        {
          "attributes": {
            "NORMAL": 5,
            "POSITION": 4,
            "TEXCOORD_0": 6
          },
          "indices": 7,
          "material": 1,
          "mode": 4
        }
      ]
    },
    {
      "name": "base.001_back_0",
      "primitives": [
        {
          "attributes": {
            "NORMAL": 9,
            "POSITION": 8,
            "TEXCOORD_0": 10
          },
          "indices": 11,
          "material": 2,
          "mode": 4
        }
      ]
    },
    {
      "name": "base.001_METAL_0",
      "primitives": [
        {
          "attributes": {
            "NORMAL": 13,
            "POSITION": 12,
            "TEXCOORD_0": 14
          },
          "indices": 15,
          "material": 3,
          "mode": 4
        }
      ]
    },
    {
      "name": "sidebar_base color_0",
      "primitives": [
        {
          "attributes": {
            "NORMAL": 17,
            "POSITION": 16,
            "TEXCOORD_0": 18
          },
          "indices": 19,
          "material": 0,
          "mode": 4
        }
      ]
    },
    {
      "name": "sidebar_METAL_0",
      "primitives": [
        {
          "attributes": {
            "NORMAL": 21,
            "POSITION": 20,
            "TEXCOORD_0": 22
          },
          "indices": 23,
          "material": 3,
          "mode": 4
        }
      ]
    },
    {
      "name": "radiao dial.001_base color_0",
      "primitives": [
        {
          "attributes": {
            "NORMAL": 25,
            "POSITION": 24,
            "TEXCOORD_0": 26
          },
          "indices": 27,
          "material": 0,
          "mode": 4
        }
      ]
    },
    {
      "name": "radiao dial.001_orange_0",
      "primitives": [
        {
          "attributes": {
            "NORMAL": 29,
            "POSITION": 28,
            "TEXCOORD_0": 30
          },
          "indices": 31,
          "material": 4,
          "mode": 4
        }
      ]
    },
    {
      "name": "power btn_base color_0",
      "primitives": [
        {
          "attributes": {
            "NORMAL": 33,
            "POSITION": 32,
            "TEXCOORD_0": 34
          },
          "indices": 35,
          "material": 0,
          "mode": 4
        }
      ]
    },
    {
      "name": "wristband.003_wristband_0",
      "primitives": [
        {
          "attributes": {
            "NORMAL": 37,
            "POSITION": 36,
            "TEXCOORD_0": 38
          },
          "indices": 39,
          "material": 5,
          "mode": 4
        }
      ]
    },
    {
      "name": "lock.001_METAL_0",
      "primitives": [
        {
          "attributes": {
            "NORMAL": 41,
            "POSITION": 40,
            "TEXCOORD_0": 42
          },
          "indices": 43,
          "material": 3,
          "mode": 4
        }
      ]
    },
    {
      "name": "base.003_wristband_0",
      "primitives": [
        {
          "attributes": {
            "NORMAL": 45,
            "POSITION": 44,
            "TEXCOORD_0": 46
          },
          "indices": 47,
          "material": 5,
          "mode": 4
        }
      ]
    }
  ],
  "nodes": [
    {
      "children": [
        1
      ],
      "matrix": [
        1.0,
        0.0,
        0.0,
        0.0,
        0.0,
        2.220446049250313e-16,
        -1.0,
        0.0,
        0.0,
        1.0,
        2.220446049250313e-16,
        0.0,
        0.0,
        0.0,
        0.0,
        1.0
      ],
      "name": "Sketchfab_model"
    },
    {
      "children": [
        2
      ],
      "matrix": [
        0.009999999776482582,
        0.0,
        0.0,
        0.0,
        0.0,
        0.0,
        0.009999999776482582,
        0.0,
        0.0,
        -0.009999999776482582,
        0.0,
        0.0,
        0.0,
        0.0,
        0.0,
        1.0
      ],
      "name": "dac63d112c1b43ad9c676d711447ab9f.fbx"
    },
    {
      "children": [
        3,
        8,
        11,
        14,
        16,
        18,
        20
      ],
      "name": "RootNode"
    },
    {
      "children": [
        4,
        5,
        6,
        7
      ],
      "matrix": [
        1.0,
        -2.2145358768608464e-16,
        -2.058544304061024e-16,
        0.0,
        2.2145357042724589e-16,
        0.07291404799279799,
        0.9973382282883294,
        0.0,
        -2.058544489727732e-16,
        -0.9973382282883294,
        0.07291404799279799,
        0.0,
        0.0,
        0.0,
        0.0,
        1.0
      ],
      "name": "base.001"
    },
    {
      "mesh": 0,
      "name": "base.001_base color_0"
    },
    {
      "mesh": 1,
      "name": "base.001_screen_0"
    },
    {
      "mesh": 2,
      "name": "base.001_back_0"
    },
    {
      "mesh": 3,
      "name": "base.001_METAL_0"
    },
    {
      "children": [
        9,
        10
      ],
      "matrix": [
        1.0,
        -2.2145358768608464e-16,
        -2.058544304061024e-16,
        0.0,
        2.2145357042724589e-16,
        0.07291404799279799,
        0.9973382282883294,
        0.0,
        -2.058544489727732e-16,
        -0.9973382282883294,
        0.07291404799279799,
        0.0,
        34.61769104003906,
        4.312568664550781,
        -12.249528884887695,
        1.0
      ],
      "name": "sidebar"
    },
    {
      "mesh": 4,
      "name": "sidebar_base color_0"
    },
    {
      "mesh": 5,
      "name": "sidebar_METAL_0"
    },
    {
      "children": [
        12,
        13
      ],
      "matrix": [
        2.401897176707024e-07,
        -0.07291404799240236,
        -0.9973382282883294,
        0.0,
        0.9999999999991418,
        1.3019005024039743e-06,
        1.4565057054882757e-07,
        0.0,
        1.2878151677830907e-06,
        -0.9973382282875085,
        0.07291404799265255,
        0.0,
        38.77242660522461,
        23.220516204833984,
        -13.727094650268555,
        1.0
      ],
      "name": "radiao dial.001"
    },
    {
      "mesh": 6,
      "name": "radiao dial.001_base color_0"
    },
    {
      "mesh": 7,
      "name": "radiao dial.001_orange_0"
    },
    {
      "children": [
        15
      ],
      "matrix": [
        2.401897176707024e-07,
        -0.07291404799240236,
        -0.9973382282883294,
        0.0,
        0.9999999999991418,
        1.3019005024039743e-06,
        1.4565057054882757e-07,
        0.0,
        1.2878151677830907e-06,
        -0.9973382282875085,
        0.07291404799265255,
        0.0,
        33.70926284790039,
        -9.918839454650879,
        -11.326311111450195,
        1.0
      ],
      "name": "power btn"
    },
    {
      "mesh": 8,
      "name": "power btn_base color_0"
    },
    {
      "children": [
        17
      ],
      "matrix": [
        1.0,
        -2.2145358768608464e-16,
        -2.058544304061024e-16,
        0.0,
        2.2145357042724589e-16,
        0.07291404799279799,
        0.9973382282883294,
        0.0,
        -2.058544489727732e-16,
        -0.9973382282883294,
        0.07291404799279799,
        0.0,
        -20.506610870361328,
        74.17219543457031,
        -19.949270248413086,
        1.0
      ],
      "name": "wristband.003"
    },
    {
      "mesh": 9,
      "name": "wristband.003_wristband_0"
    },
    {
      "children": [
        19
      ],
      "matrix": [
        1.0,
        -2.2145358768608464e-16,
        -2.058544304061024e-16,
        0.0,
        2.2145357042724589e-16,
        0.07291404799279799,
        0.9973382282883294,
        0.0,
        -2.058544489727732e-16,
        -0.9973382282883294,
        0.07291404799279799,
        0.0,
        12.993377685546875,
        2.972959041595459,
        -164.86302185058594,
        1.0
      ],
      "name": "lock.001"
    },
    {
      "mesh": 10,
      "name": "lock.001_METAL_0"
    },
    {
      "children": [
        21
      ],
      "matrix": [
        1.0,
        -2.2145358768608464e-16,
        -2.058544304061024e-16,
        0.0,
        2.2145357042724589e-16,
        0.07291404799279799,
        0.9973382282883294,
        0.0,
        -2.058544489727732e-16,
        -0.9973382282883294,
        0.07291404799279799,
        0.0,
        0.0,
        0.0,
        0.0,
        1.0
      ],
      "name": "base.003"
    },
    {
      "mesh": 11,
      "name": "base.003_wristband_0"
    }
  ],
  "samplers": [
    {
      "magFilter": 9729,
      "minFilter": 9987,
      "wrapS": 10497,
      "wrapT": 10497
    }
  ],
  "scene": 0,
  "scenes": [
    {
      "name": "Sketchfab_Scene",
      "nodes": [
        0
      ]
    }
  ],
  "textures": [
    {
      "sampler": 0,
      "source": 0
    },
    {
      "sampler": 0,
      "source": 1
    }
  ]
}
